<svg width="108" height="100" viewBox="0 0 108 100" fill="none" xmlns="http://www.w3.org/2000/svg">
<rect x="0.121063" width="107.758" height="100" rx="13" fill="#FFE5E5"/>
<path d="M51.6072 37.4536C51.3396 36.6933 50.8427 36.0347 50.1849 35.5688C49.5272 35.1029 48.7411 34.8525 47.935 34.8523H44.917C44.0609 34.8547 43.2357 35.1729 42.5995 35.7458C41.9633 36.3188 41.5609 37.1064 41.4693 37.9576C41.3776 38.8088 41.6032 39.664 42.1029 40.3592C42.6025 41.0545 43.3411 41.541 44.1771 41.7255L48.7645 42.7302C49.7031 42.9351 50.5329 43.4797 51.0943 44.2594C51.6557 45.0391 51.909 45.9988 51.8057 46.9539C51.7023 47.9091 51.2494 48.7923 50.5342 49.4338C49.819 50.0753 48.8919 50.4298 47.9311 50.429H45.3337C44.5286 50.4294 43.7432 50.1802 43.0855 49.7157C42.4279 49.2512 41.9304 48.5944 41.6615 47.8355M46.6383 34.8523V30.9581M46.6383 54.3232V50.429M54.0645 75.6127V55.1682C54.0645 53.8772 54.5773 52.6391 55.4902 51.7262C56.4031 50.8134 57.6412 50.3005 58.9322 50.3005C60.2232 50.3005 61.4613 50.8134 62.3742 51.7262C63.2871 52.6391 63.7999 53.8772 63.7999 55.1682V65.8772H71.5883C73.6539 65.8772 75.6349 66.6978 77.0955 68.1584C78.5561 69.619 79.3766 71.6 79.3766 73.6656V75.6127" stroke="#FF1616" stroke-width="2" stroke-linecap="round" stroke-linejoin="round"/>
<path d="M46.6421 60.2891C43.0493 60.2886 39.5422 59.1913 36.5897 57.1439C33.6373 55.0965 31.3803 52.1966 30.1204 48.8318C28.8605 45.4671 28.6578 41.798 29.5394 38.315C30.421 34.8319 32.3449 31.7011 35.0539 29.3409C37.7628 26.9808 41.1277 25.5039 44.6986 25.1076C48.2696 24.7114 51.8764 25.4148 55.0368 27.1236C58.1973 28.8325 60.7607 31.4655 62.3844 34.6705C64.0081 37.8755 64.6147 41.4999 64.1231 45.0589" stroke="#FF1616" stroke-width="2" stroke-linecap="round"/>
</svg>
