<svg width="109" height="100" viewBox="0 0 109 100" fill="none" xmlns="http://www.w3.org/2000/svg">
<rect x="0.254028" width="107.758" height="100" rx="13" fill="#FFECEA"/>
<path fill-rule="evenodd" clip-rule="evenodd" d="M35.2808 30.1064C35.3589 30.0233 35.4515 29.9575 35.5535 29.9127C35.6555 29.8678 35.7647 29.8449 35.875 29.8451H40.9107C41.5785 29.8451 42.2189 29.5622 42.6911 29.0587C43.1633 28.5551 43.4286 27.8722 43.4286 27.1601C43.4286 26.448 43.1633 25.765 42.6911 25.2615C42.2189 24.758 41.5785 24.4751 40.9107 24.4751H35.875C34.3169 24.4751 32.8225 25.1352 31.7207 26.3101C30.619 27.485 30 29.0785 30 30.7401V36.11C30 36.8221 30.2653 37.5051 30.7375 38.0086C31.2097 38.5121 31.8501 38.795 32.5179 38.795C33.1856 38.795 33.8261 38.5121 34.2983 38.0086C34.7704 37.5051 35.0357 36.8221 35.0357 36.11V30.7401C35.0355 30.6224 35.0571 30.5059 35.0991 30.3972C35.1412 30.2885 35.2029 30.1897 35.2808 30.1064ZM77 62.9599C77 62.2478 76.7347 61.5648 76.2625 61.0613C75.7903 60.5578 75.1499 60.2749 74.4821 60.2749C73.8144 60.2749 73.1739 60.5578 72.7018 61.0613C72.2296 61.5648 71.9643 62.2478 71.9643 62.9599V68.3298C71.9643 68.5672 71.8759 68.7948 71.7185 68.9627C71.5611 69.1305 71.3476 69.2248 71.125 69.2248H66.0893C65.4215 69.2248 64.7811 69.5077 64.3089 70.0112C63.8367 70.5148 63.5714 71.1977 63.5714 71.9098C63.5714 72.6219 63.8367 73.3048 64.3089 73.8084C64.7811 74.3119 65.4215 74.5948 66.0893 74.5948H71.125C72.6831 74.5948 74.1775 73.9347 75.2793 72.7598C76.381 71.5849 77 69.9914 77 68.3298V62.9599ZM32.5179 60.2749C33.1856 60.2749 33.8261 60.5578 34.2983 61.0613C34.7704 61.5648 35.0357 62.2478 35.0357 62.9599V68.3298C35.0357 68.5672 35.1241 68.7948 35.2815 68.9627C35.4389 69.1305 35.6524 69.2248 35.875 69.2248H40.9107C41.5785 69.2248 42.2189 69.5077 42.6911 70.0112C43.1633 70.5148 43.4286 71.1977 43.4286 71.9098C43.4286 72.6219 43.1633 73.3048 42.6911 73.8084C42.2189 74.3119 41.5785 74.5948 40.9107 74.5948H35.875C34.3169 74.5948 32.8225 73.9347 31.7207 72.7598C30.619 71.5849 30 69.9914 30 68.3298V62.9599C30 62.2478 30.2653 61.5648 30.7375 61.0613C31.2097 60.5578 31.8501 60.2749 32.5179 60.2749ZM66.0893 24.4751C65.4215 24.4751 64.7811 24.758 64.3089 25.2615C63.8367 25.765 63.5714 26.448 63.5714 27.1601C63.5714 27.8722 63.8367 28.5551 64.3089 29.0587C64.7811 29.5622 65.4215 29.8451 66.0893 29.8451H71.125C71.3476 29.8451 71.5611 29.9394 71.7185 30.1072C71.8759 30.275 71.9643 30.5027 71.9643 30.7401V36.11C71.9643 36.8221 72.2296 37.5051 72.7018 38.0086C73.1739 38.5121 73.8144 38.795 74.4821 38.795C75.1499 38.795 75.7903 38.5121 76.2625 38.0086C76.7347 37.5051 77 36.8221 77 36.11V30.7401C77 29.0785 76.381 27.485 75.2793 26.3101C74.1775 25.1352 72.6831 24.4751 71.125 24.4751H66.0893ZM53.5 52.313C50.4714 52.3113 47.5148 53.2979 45.0273 55.1403C42.5398 56.9827 40.6406 59.5927 39.5846 62.6198C39.2086 63.6902 40.011 64.7498 41.0819 64.7498H65.9114C66.9856 64.7498 67.7846 63.6902 67.412 62.6198C66.3561 59.5927 64.4569 56.9827 61.9694 55.1403C59.4819 53.2979 56.5286 52.3113 53.5 52.313ZM60.9126 40.4454C60.9126 42.5442 60.1307 44.557 58.739 46.0411C57.3473 47.5252 55.4598 48.3589 53.4916 48.3589C51.5234 48.3589 49.6359 47.5252 48.2442 46.0411C46.8525 44.557 46.0706 42.5442 46.0706 40.4454C46.0706 38.3466 46.8525 36.3337 48.2442 34.8497C49.6359 33.3656 51.5234 32.5318 53.4916 32.5318C55.4598 32.5318 57.3473 33.3656 58.739 34.8497C60.1307 36.3337 60.9126 38.3466 60.9126 40.4454Z" fill="#E71D36"/>
</svg>
