<svg width="109" height="100" viewBox="0 0 109 100" fill="none" xmlns="http://www.w3.org/2000/svg">
<rect x="0.551575" width="107.758" height="100" rx="13" fill="#FFECEA"/>
<path d="M43.9688 68.5625V76.1875M32.5312 22.8125H55.4062C56.4174 22.8125 57.3871 23.2142 58.1021 23.9292C58.8171 24.6441 59.2188 25.6139 59.2188 26.625V75.7109C59.2188 75.8373 59.1685 75.9585 59.0792 76.0479C58.9898 76.1373 58.8686 76.1875 58.7422 76.1875H28.7188V26.625C28.7188 25.6139 29.1204 24.6441 29.8354 23.9292C30.5504 23.2142 31.5201 22.8125 32.5312 22.8125ZM61.125 41.875H74.4688C75.4799 41.875 76.4496 42.2767 77.1646 42.9917C77.8796 43.7066 78.2812 44.6764 78.2812 45.6875V76.1875H59.2188V43.7812C59.2188 43.2757 59.4196 42.7908 59.7771 42.4333C60.1346 42.0758 60.6194 41.875 61.125 41.875Z" stroke="#E71D36" stroke-linecap="round" stroke-linejoin="round"/>
<path d="M34.6853 70.4531C34.2905 70.5048 33.8895 70.4315 33.5384 70.2436C33.1874 70.0557 32.904 69.7626 32.7281 69.4054C32.5521 69.0482 32.4924 68.6449 32.5574 68.2521C32.6223 67.8592 32.8086 67.4966 33.0902 67.2151C33.3717 66.9335 33.7344 66.7472 34.1272 66.6823C34.52 66.6173 34.9233 66.677 35.2805 66.853C35.6377 67.0289 35.9308 67.3123 36.1187 67.6633C36.3066 68.0143 36.3799 68.4154 36.3283 68.8102C36.2738 69.2268 36.0832 69.6138 35.786 69.9109C35.4889 70.208 35.102 70.3987 34.6853 70.4531ZM34.6853 60.9219C34.2905 60.9735 33.8895 60.9002 33.5384 60.7123C33.1874 60.5244 32.904 60.2313 32.7281 59.8741C32.5521 59.517 32.4924 59.1136 32.5574 58.7208C32.6223 58.328 32.8086 57.9654 33.0902 57.6838C33.3717 57.4023 33.7344 57.216 34.1272 57.151C34.52 57.0861 34.9233 57.1458 35.2805 57.3217C35.6377 57.4977 35.9308 57.781 36.1187 58.1321C36.3066 58.4831 36.3799 58.8841 36.3283 59.2789C36.2738 59.6956 36.0832 60.0825 35.786 60.3797C35.4889 60.6768 35.102 60.8674 34.6853 60.9219ZM34.6853 51.3906C34.2905 51.4423 33.8895 51.369 33.5384 51.1811C33.1874 50.9932 32.904 50.7 32.7281 50.3429C32.5521 49.9857 32.4924 49.5824 32.5574 49.1896C32.6223 48.7967 32.8086 48.4341 33.0902 48.1526C33.3717 47.871 33.7344 47.6847 34.1272 47.6198C34.52 47.5548 34.9233 47.6145 35.2805 47.7905C35.6377 47.9664 35.9308 48.2498 36.1187 48.6008C36.3066 48.9518 36.3799 49.3529 36.3283 49.7477C36.2738 50.1643 36.0832 50.5513 35.786 50.8484C35.4889 51.1455 35.102 51.3362 34.6853 51.3906ZM34.6853 41.8594C34.2905 41.911 33.8895 41.8377 33.5384 41.6498C33.1874 41.4619 32.904 41.1688 32.7281 40.8116C32.5521 40.4545 32.4924 40.0511 32.5574 39.6583C32.6223 39.2655 32.8086 38.9029 33.0902 38.6213C33.3717 38.3398 33.7344 38.1535 34.1272 38.0885C34.52 38.0236 34.9233 38.0833 35.2805 38.2592C35.6377 38.4352 35.9308 38.7185 36.1187 39.0696C36.3066 39.4206 36.3799 39.8216 36.3283 40.2164C36.2738 40.6331 36.0832 41.02 35.786 41.3172C35.4889 41.6143 35.102 41.8049 34.6853 41.8594ZM34.6853 32.3281C34.2905 32.3798 33.8895 32.3065 33.5384 32.1186C33.1874 31.9307 32.904 31.6375 32.7281 31.2804C32.5521 30.9232 32.4924 30.5199 32.5574 30.1271C32.6223 29.7342 32.8086 29.3716 33.0902 29.0901C33.3717 28.8085 33.7344 28.6222 34.1272 28.5573C34.52 28.4923 34.9233 28.552 35.2805 28.728C35.6377 28.9039 35.9308 29.1873 36.1187 29.5383C36.3066 29.8893 36.3799 30.2904 36.3283 30.6852C36.2738 31.1018 36.0832 31.4888 35.786 31.7859C35.4889 32.083 35.102 32.2737 34.6853 32.3281ZM44.2166 60.9219C43.8218 60.9735 43.4207 60.9002 43.0697 60.7123C42.7187 60.5244 42.4353 60.2313 42.2593 59.8741C42.0834 59.517 42.0237 59.1136 42.0886 58.7208C42.1536 58.328 42.3399 57.9654 42.6214 57.6838C42.903 57.4023 43.2656 57.216 43.6584 57.151C44.0513 57.0861 44.4546 57.1458 44.8117 57.3217C45.1689 57.4977 45.462 57.781 45.65 58.1321C45.8379 58.4831 45.9111 58.8841 45.8595 59.2789C45.805 59.6956 45.6144 60.0825 45.3173 60.3797C45.0202 60.6768 44.6332 60.8674 44.2166 60.9219ZM44.2166 51.3906C43.8218 51.4423 43.4207 51.369 43.0697 51.1811C42.7187 50.9932 42.4353 50.7 42.2593 50.3429C42.0834 49.9857 42.0237 49.5824 42.0886 49.1896C42.1536 48.7967 42.3399 48.4341 42.6214 48.1526C42.903 47.871 43.2656 47.6847 43.6584 47.6198C44.0513 47.5548 44.4546 47.6145 44.8117 47.7905C45.1689 47.9664 45.462 48.2498 45.65 48.6008C45.8379 48.9518 45.9111 49.3529 45.8595 49.7477C45.805 50.1643 45.6144 50.5513 45.3173 50.8484C45.0202 51.1455 44.6332 51.3362 44.2166 51.3906ZM44.2166 41.8594C43.8218 41.911 43.4207 41.8377 43.0697 41.6498C42.7187 41.4619 42.4353 41.1688 42.2593 40.8116C42.0834 40.4545 42.0237 40.0511 42.0886 39.6583C42.1536 39.2655 42.3399 38.9029 42.6214 38.6213C42.903 38.3398 43.2656 38.1535 43.6584 38.0885C44.0513 38.0236 44.4546 38.0833 44.8117 38.2592C45.1689 38.4352 45.462 38.7185 45.65 39.0696C45.8379 39.4206 45.9111 39.8216 45.8595 40.2164C45.805 40.6331 45.6144 41.02 45.3173 41.3172C45.0202 41.6143 44.6332 41.8049 44.2166 41.8594ZM44.2166 32.3281C43.8218 32.3798 43.4207 32.3065 43.0697 32.1186C42.7187 31.9307 42.4353 31.6375 42.2593 31.2804C42.0834 30.9232 42.0237 30.5199 42.0886 30.1271C42.1536 29.7342 42.3399 29.3716 42.6214 29.0901C42.903 28.8085 43.2656 28.6222 43.6584 28.5573C44.0513 28.4923 44.4546 28.552 44.8117 28.728C45.1689 28.9039 45.462 29.1873 45.65 29.5383C45.8379 29.8893 45.9111 30.2904 45.8595 30.6852C45.805 31.1018 45.6144 31.4888 45.3173 31.7859C45.0202 32.083 44.6332 32.2737 44.2166 32.3281ZM53.7478 70.4531C53.353 70.5048 52.952 70.4315 52.6009 70.2436C52.2499 70.0557 51.9665 69.7626 51.7906 69.4054C51.6146 69.0482 51.5549 68.6449 51.6199 68.2521C51.6848 67.8592 51.8711 67.4966 52.1527 67.2151C52.4342 66.9335 52.7969 66.7472 53.1897 66.6823C53.5825 66.6173 53.9858 66.677 54.343 66.853C54.7002 67.0289 54.9933 67.3123 55.1812 67.6633C55.3691 68.0143 55.4424 68.4154 55.3908 68.8102C55.3363 69.2268 55.1457 69.6138 54.8485 69.9109C54.5514 70.208 54.1645 70.3987 53.7478 70.4531ZM53.7478 60.9219C53.353 60.9735 52.952 60.9002 52.6009 60.7123C52.2499 60.5244 51.9665 60.2313 51.7906 59.8741C51.6146 59.517 51.5549 59.1136 51.6199 58.7208C51.6848 58.328 51.8711 57.9654 52.1527 57.6838C52.4342 57.4023 52.7969 57.216 53.1897 57.151C53.5825 57.0861 53.9858 57.1458 54.343 57.3217C54.7002 57.4977 54.9933 57.781 55.1812 58.1321C55.3691 58.4831 55.4424 58.8841 55.3908 59.2789C55.3363 59.6956 55.1457 60.0825 54.8485 60.3797C54.5514 60.6768 54.1645 60.8674 53.7478 60.9219ZM53.7478 51.3906C53.353 51.4423 52.952 51.369 52.6009 51.1811C52.2499 50.9932 51.9665 50.7 51.7906 50.3429C51.6146 49.9857 51.5549 49.5824 51.6199 49.1896C51.6848 48.7967 51.8711 48.4341 52.1527 48.1526C52.4342 47.871 52.7969 47.6847 53.1897 47.6198C53.5825 47.5548 53.9858 47.6145 54.343 47.7905C54.7002 47.9664 54.9933 48.2498 55.1812 48.6008C55.3691 48.9518 55.4424 49.3529 55.3908 49.7477C55.3363 50.1643 55.1457 50.5513 54.8485 50.8484C54.5514 51.1455 54.1645 51.3362 53.7478 51.3906Z" fill="#E71D36"/>
<path d="M54.8504 41.3181C55.5926 40.576 55.5895 39.3698 54.8437 38.624C54.0979 37.8781 52.8917 37.8751 52.1495 38.6172C51.4074 39.3593 51.4104 40.5656 52.1563 41.3114C52.9021 42.0572 54.1083 42.0602 54.8504 41.3181Z" fill="#E71D36"/>
<path d="M53.7478 32.3281C53.353 32.3798 52.952 32.3065 52.6009 32.1186C52.2499 31.9307 51.9665 31.6375 51.7906 31.2804C51.6146 30.9232 51.5549 30.5199 51.6199 30.1271C51.6848 29.7342 51.8711 29.3716 52.1527 29.0901C52.4342 28.8085 52.7969 28.6222 53.1897 28.5573C53.5825 28.4923 53.9858 28.552 54.343 28.728C54.7002 28.9039 54.9933 29.1873 55.1812 29.5383C55.3691 29.8893 55.4424 30.2904 55.3908 30.6852C55.3363 31.1018 55.1457 31.4888 54.8485 31.7859C54.5514 32.083 54.1645 32.2737 53.7478 32.3281ZM70.6563 66.6561C70.2792 66.6561 69.9107 66.7679 69.5972 66.9774C69.2837 67.1869 69.0394 67.4846 68.8951 67.8329C68.7508 68.1812 68.7131 68.5645 68.7866 68.9343C68.8602 69.3041 69.0417 69.6437 69.3083 69.9103C69.5749 70.1769 69.9146 70.3585 70.2844 70.432C70.6541 70.5056 71.0374 70.4678 71.3857 70.3235C71.7341 70.1792 72.0318 69.9349 72.2412 69.6214C72.4507 69.308 72.5625 68.9394 72.5625 68.5624C72.5625 68.0568 72.3617 67.5719 72.0042 67.2145C71.6467 66.857 71.1618 66.6561 70.6563 66.6561ZM70.6563 57.1249C70.2792 57.1249 69.9107 57.2367 69.5972 57.4461C69.2837 57.6556 69.0394 57.9533 68.8951 58.3016C68.7508 58.65 68.7131 59.0332 68.7866 59.403C68.8602 59.7728 69.0417 60.1125 69.3083 60.3791C69.5749 60.6456 69.9146 60.8272 70.2844 60.9008C70.6541 60.9743 71.0374 60.9366 71.3857 60.7923C71.7341 60.648 72.0318 60.4037 72.2412 60.0902C72.4507 59.7767 72.5625 59.4082 72.5625 59.0311C72.5625 58.5256 72.3617 58.0407 72.0042 57.6832C71.6467 57.3257 71.1618 57.1249 70.6563 57.1249ZM70.6563 47.5936C70.2792 47.5936 69.9107 47.7054 69.5972 47.9149C69.2837 48.1244 69.0394 48.4221 68.8951 48.7704C68.7508 49.1187 68.7131 49.502 68.7866 49.8718C68.8602 50.2416 69.0417 50.5812 69.3083 50.8478C69.5749 51.1144 69.9146 51.2959 70.2844 51.3695C70.6541 51.4431 71.0374 51.4053 71.3857 51.261C71.7341 51.1167 72.0318 50.8724 72.2412 50.5589C72.4507 50.2455 72.5625 49.8769 72.5625 49.4999C72.5625 48.9943 72.3617 48.5095 72.0042 48.152C71.6467 47.7945 71.1618 47.5936 70.6563 47.5936ZM63.0313 66.6561C62.6542 66.6561 62.2857 66.7679 61.9722 66.9774C61.6587 67.1869 61.4144 67.4846 61.2701 67.8329C61.1258 68.1812 61.0881 68.5645 61.1616 68.9343C61.2352 69.3041 61.4167 69.6437 61.6833 69.9103C61.9499 70.1769 62.2896 70.3585 62.6594 70.432C63.0291 70.5056 63.4124 70.4678 63.7607 70.3235C64.1091 70.1792 64.4068 69.9349 64.6162 69.6214C64.8257 69.308 64.9375 68.9394 64.9375 68.5624C64.9375 68.0568 64.7367 67.5719 64.3792 67.2145C64.0217 66.857 63.5368 66.6561 63.0313 66.6561ZM63.0313 57.1249C62.6542 57.1249 62.2857 57.2367 61.9722 57.4461C61.6587 57.6556 61.4144 57.9533 61.2701 58.3016C61.1258 58.65 61.0881 59.0332 61.1616 59.403C61.2352 59.7728 61.4167 60.1125 61.6833 60.3791C61.9499 60.6456 62.2896 60.8272 62.6594 60.9008C63.0291 60.9743 63.4124 60.9366 63.7607 60.7923C64.1091 60.648 64.4068 60.4037 64.6162 60.0902C64.8257 59.7767 64.9375 59.4082 64.9375 59.0311C64.9375 58.5256 64.7367 58.0407 64.3792 57.6832C64.0217 57.3257 63.5368 57.1249 63.0313 57.1249ZM63.0313 47.5936C62.6542 47.5936 62.2857 47.7054 61.9722 47.9149C61.6587 48.1244 61.4144 48.4221 61.2701 48.7704C61.1258 49.1187 61.0881 49.502 61.1616 49.8718C61.2352 50.2416 61.4167 50.5812 61.6833 50.8478C61.9499 51.1144 62.2896 51.2959 62.6594 51.3695C63.0291 51.4431 63.4124 51.4053 63.7607 51.261C64.1091 51.1167 64.4068 50.8724 64.6162 50.5589C64.8257 50.2455 64.9375 49.8769 64.9375 49.4999C64.9375 48.9943 64.7367 48.5095 64.3792 48.152C64.0217 47.7945 63.5368 47.5936 63.0313 47.5936Z" fill="#E71D36"/>
</svg>
