<svg width="108" height="100" viewBox="0 0 108 100" fill="none" xmlns="http://www.w3.org/2000/svg">
<rect x="0.121033" width="107.758" height="100" rx="13" fill="#E8FFF6"/>
<path d="M47.7895 32.3629C47.7895 30.9767 48.3382 29.6472 49.3149 28.667C50.2915 27.6868 51.6161 27.1361 52.9973 27.1361C54.3785 27.1361 55.7031 27.6868 56.6798 28.667C57.6564 29.6472 58.2051 30.9767 58.2051 32.3629C58.2051 33.7491 57.6564 35.0786 56.6798 36.0588C55.7031 37.039 54.3785 37.5897 52.9973 37.5897C51.6161 37.5897 50.2915 37.039 49.3149 36.0588C48.3382 35.0786 47.7895 33.7491 47.7895 32.3629ZM52.9973 24C50.7874 24 48.668 24.8811 47.1054 26.4494C45.5427 28.0178 44.6649 30.1449 44.6649 32.3629C44.6649 34.5809 45.5427 36.708 47.1054 38.2764C48.668 39.8447 50.7874 40.7258 52.9973 40.7258C55.2072 40.7258 57.3266 39.8447 58.8892 38.2764C60.4519 36.708 61.3297 34.5809 61.3297 32.3629C61.3297 30.1449 60.4519 28.0178 58.8892 26.4494C57.3266 24.8811 55.2072 24 52.9973 24ZM35.2909 33.4083C34.1859 33.4083 33.1262 33.8488 32.3449 34.633C31.5636 35.4172 31.1247 36.4807 31.1247 37.5897C31.1247 38.6987 31.5636 39.7623 32.3449 40.5464C33.1262 41.3306 34.1859 41.7712 35.2909 41.7712C36.3958 41.7712 37.4555 41.3306 38.2368 40.5464C39.0182 39.7623 39.4571 38.6987 39.4571 37.5897C39.4571 36.4807 39.0182 35.4172 38.2368 34.633C37.4555 33.8488 36.3958 33.4083 35.2909 33.4083ZM28 37.5897C28 36.6288 28.1886 35.6772 28.555 34.7894C28.9214 33.9016 29.4584 33.0949 30.1354 32.4154C30.8125 31.7359 31.6162 31.1969 32.5008 30.8292C33.3854 30.4614 34.3334 30.2722 35.2909 30.2722C36.2483 30.2722 37.1964 30.4614 38.081 30.8292C38.9656 31.1969 39.7693 31.7359 40.4463 32.4154C41.1233 33.0949 41.6604 33.9016 42.0268 34.7894C42.3932 35.6772 42.5818 36.6288 42.5818 37.5897C42.5818 39.5304 41.8136 41.3917 40.4463 42.764C39.079 44.1363 37.2245 44.9072 35.2909 44.9072C33.3572 44.9072 31.5028 44.1363 30.1354 42.764C28.7681 41.3917 28 39.5304 28 37.5897ZM70.7037 33.4083C69.5988 33.4083 68.5391 33.8488 67.7578 34.633C66.9765 35.4172 66.5375 36.4807 66.5375 37.5897C66.5375 38.6987 66.9765 39.7623 67.7578 40.5464C68.5391 41.3306 69.5988 41.7712 70.7037 41.7712C71.8087 41.7712 72.8684 41.3306 73.6497 40.5464C74.431 39.7623 74.8699 38.6987 74.8699 37.5897C74.8699 36.4807 74.431 35.4172 73.6497 34.633C72.8684 33.8488 71.8087 33.4083 70.7037 33.4083ZM63.4128 37.5897C63.4128 35.649 64.181 33.7877 65.5483 32.4154C66.9156 31.0431 68.7701 30.2722 70.7037 30.2722C72.6374 30.2722 74.4919 31.0431 75.8592 32.4154C77.2265 33.7877 77.9946 35.649 77.9946 37.5897C77.9946 39.5304 77.2265 41.3917 75.8592 42.764C74.4919 44.1363 72.6374 44.9072 70.7037 44.9072C68.7701 44.9072 66.9156 44.1363 65.5483 42.764C64.181 41.3917 63.4128 39.5304 63.4128 37.5897ZM42.5818 48.566C42.5818 46.5464 44.2149 44.9072 46.2272 44.9072H59.7674C61.7797 44.9072 63.4128 46.5464 63.4128 48.566V59.5423C63.4128 62.3148 62.3155 64.9737 60.3622 66.9341C58.4089 68.8946 55.7597 69.9959 52.9973 69.9959C50.2349 69.9959 47.5857 68.8946 45.6324 66.9341C43.6791 64.9737 42.5818 62.3148 42.5818 59.5423V48.566ZM46.2272 48.0433C46.0891 48.0433 45.9566 48.0984 45.859 48.1964C45.7613 48.2944 45.7064 48.4274 45.7064 48.566V59.5423C45.7064 61.483 46.4746 63.3443 47.8419 64.7166C49.2092 66.0889 51.0636 66.8599 52.9973 66.8599C54.931 66.8599 56.7854 66.0889 58.1527 64.7166C59.52 63.3443 60.2882 61.483 60.2882 59.5423V48.566C60.2882 48.4274 60.2333 48.2944 60.1357 48.1964C60.038 48.0984 59.9055 48.0433 59.7674 48.0433H46.2272ZM40.4987 48.5702L30.7018 51.2045C30.2393 51.329 29.8058 51.5436 29.426 51.8363C29.0461 52.1289 28.7275 52.4938 28.4882 52.91C28.2489 53.3263 28.0937 53.7858 28.0314 54.2623C27.969 54.7387 28.0009 55.2229 28.125 55.687L29.8769 62.2498C30.2776 63.752 31.0072 65.1455 32.0125 66.3289C33.0178 67.5122 34.2735 68.4556 35.688 69.0901C37.1026 69.7247 38.6404 70.0345 40.1894 69.997C41.7384 69.9594 43.2595 69.5755 44.642 68.8732C43.83 68.1411 43.117 67.3054 42.5213 66.3873C42.295 66.4738 42.0631 66.549 41.8256 66.6131C40.9007 66.862 39.936 66.9255 38.9866 66.8001C38.0373 66.6747 37.1218 66.3629 36.2925 65.8824C35.4633 65.4019 34.7364 64.7621 34.1535 63.9996C33.5706 63.2372 33.1431 62.3669 32.8953 61.4386L31.1434 54.8737C31.1078 54.7398 31.1266 54.5972 31.1958 54.4772C31.2649 54.3572 31.3787 54.2697 31.5121 54.234L40.4987 51.8171V48.5702ZM61.3547 68.8711C61.9866 69.1917 62.6574 69.4489 63.367 69.6426C64.6883 69.998 66.0664 70.0887 67.4226 69.9094C68.7788 69.7302 70.0865 69.2847 71.2712 68.5982C72.4558 67.9117 73.4941 66.9977 74.3267 65.9084C75.1594 64.8192 75.7701 63.576 76.124 62.2498L77.8759 55.6849C78.1259 54.7478 77.995 53.7494 77.5118 52.9092C77.0285 52.069 76.2326 51.4559 75.2991 51.2045L65.496 48.5702V51.815L74.4908 54.234C74.6238 54.2702 74.7371 54.3579 74.8059 54.4778C74.8746 54.5977 74.8931 54.7401 74.8574 54.8737L73.1076 61.4386C72.8438 62.4274 72.3762 63.3496 71.735 64.1457C71.0939 64.9418 70.2934 65.594 69.3854 66.0602C68.4774 66.5264 67.4821 66.7962 66.4637 66.8522C65.4453 66.9082 64.4266 66.7491 63.4733 66.3853C62.8775 67.3052 62.163 68.1415 61.3547 68.8711Z" fill="#00FF44"/>
</svg>
