<svg width="108" height="100" viewBox="0 0 108 100" fill="none" xmlns="http://www.w3.org/2000/svg">
<rect x="0.121094" width="107.758" height="100" rx="13" fill="#FEF6DA"/>
<path d="M54 26.5333L54.6869 25.1625C54.4737 25.0556 54.2385 25 54 25C53.7615 25 53.5263 25.0556 53.3131 25.1625L54 26.5333ZM44.8 51.0666V49.5333H43.2667V51.0666H44.8ZM57.0667 51.0666H58.6V49.5333H57.0667V51.0666ZM31 71H77V67.9333H31V71ZM53.3131 25.1625L34.9131 34.3625L36.2869 37.1041L54.6869 27.9041L53.3131 25.1625ZM31 43.4H77V40.3333H31V43.4ZM73.0869 34.3625L54.6869 25.1625L53.3131 27.9041L71.7131 37.1041L73.0869 34.3625ZM34.0667 41.8666V69.4667H37.1333V41.8666H34.0667ZM70.8667 41.8666V69.4667H73.9333V41.8666H70.8667ZM46.3333 69.4667V51.0666H43.2667V69.4667H46.3333ZM44.8 52.6H57.0667V49.5333H44.8V52.6ZM55.5333 51.0666V69.4667H58.6V51.0666H55.5333Z" fill="#FF9E16"/>
</svg>
