<svg width="109" height="100" viewBox="0 0 109 100" fill="none" xmlns="http://www.w3.org/2000/svg">
<rect x="0.605225" width="107.758" height="100" rx="13" fill="#D2FFFB"/>
<path d="M53.5 22.3423C39.978 22.3423 29 34.0489 29 48.4685C29 62.8881 39.978 74.5947 53.5 74.5947C66.9975 74.5947 77.9564 62.9299 77.9961 48.5458C77.9983 48.5201 77.9996 48.4943 78 48.4685C77.9997 48.4453 77.9988 48.4221 77.9971 48.399C77.9618 34.0113 67.0005 22.3423 53.5 22.3423ZM53.5 23.9099C54.3286 23.9099 55.1464 23.959 55.9529 24.0499C55.9588 24.1628 55.7555 24.2406 55.1386 24.215C54.8201 24.5118 54.8887 24.5614 53.6392 24.6059C53.3883 25.769 50.4723 25.1023 52.3764 24.504C55.143 23.8179 51.4895 23.7928 50.8643 24.9408C52.6391 25.7544 49.4462 25.0845 48.8671 25.6776C48.5152 25.2919 47.7391 24.9758 46.887 24.9408C49.0326 24.2561 51.2604 23.9088 53.5 23.9099ZM71.0998 32.6277C71.7568 33.4584 72.3613 34.3346 72.9094 35.2507C72.9324 35.4441 72.9388 35.6358 72.9163 35.8255C73.2313 36.8382 72.6276 35.8725 72.612 35.744C71.8289 34.8797 71.5315 33.7459 71.0998 32.6277ZM36.299 32.7295C36.7513 32.6616 34.3185 34.8134 35.3097 34.5882C36.2618 32.2838 36.7337 35.0104 35.3308 35.1776C34.1744 38.2223 36.8243 33.61 36.8478 35.2654C36.1398 36.8794 36.9478 37.8994 38.311 37.1506C39.6178 36.5957 38.5712 38.0421 39.3233 38.018C40.3425 36.5236 40.0074 38.0901 39.1675 39.1916C37.8406 39.8333 36.5813 38.7501 35.6954 37.9292C34.7252 40.0574 33.9505 37.0587 34.6017 36.231C35.4768 35.954 34.637 35.374 34.2896 34.9184C34.4317 34.6916 34.577 34.4671 34.7257 34.2449C34.8795 34.1231 34.9295 34.0285 34.9251 33.947C35.109 33.6809 35.2978 33.4189 35.4915 33.1612C35.9413 32.88 36.1996 32.7447 36.299 32.7295ZM40.9898 32.7379C40.9354 33.5792 43.1801 33.309 43.0429 34.8102C42.2849 35.3981 41.6895 34.4183 40.9898 34.3389C38.8774 35.1185 39.6796 33.3477 40.9898 32.7379ZM47.1202 32.9041C47.3005 32.9109 47.4265 33.0054 47.4451 33.2134C45.735 33.7511 47.2853 35.9687 47.1491 37.3884C45.9373 37.8498 44.4213 36.7044 46.0246 35.6693C44.5374 34.491 46.3391 32.8743 47.1202 32.9041ZM70.599 34.8667C71.3301 34.7815 72.1362 36.0983 72.8359 37.4621C72.5125 35.0543 74.7552 40.7482 73.834 37.483C73.882 37.3727 73.9144 37.2577 73.9355 37.1402C75.6443 40.6379 76.5345 44.5245 76.53 48.4685C76.53 49.5569 76.4565 50.6265 76.3281 51.6768C76.0473 51.7217 76.0331 54.4681 75.5613 53.77C75.1541 54.1389 76.6285 50.8601 75.55 52.899C73.8561 54.7748 74.7983 51.5347 75.4344 50.6312C75.9023 50.9029 76.3075 50.3465 76.041 49.0401C75.8499 46.9187 74.9306 46.2483 74.4632 44.3515C73.686 44.7565 74.9262 47.5233 74.4877 48.7888C74.13 50.44 73.4131 54.3621 71.9612 54.0835C71.1694 52.1304 72.1327 55.881 71.7324 56.5828C72.0406 57.0693 74.348 57.5829 74.0388 55.497C74.8983 52.9298 74.4112 55.173 74.3412 56.6011C75.5064 57.5625 72.3812 58.9023 73.4685 57.9586C72.6619 57.621 71.9975 58.5778 71.3086 58.479C70.7132 59.0324 70.6657 58.0234 70.9264 57.6921C72.7457 56.7965 70.0929 57.1163 70.5275 56.1872C70.7529 54.1577 69.2378 52.8034 68.4989 51.4934C68.1647 48.967 70.4319 50.824 70.3305 51.8137C72.7609 50.6542 71.7883 47.2348 70.3124 45.6923C71.3159 43.4659 70.7299 45.9578 71.4884 46.2786C71.6712 44.8323 72.1073 44.0558 73.0157 42.8127C73.6086 40.5779 72.8364 38.2965 71.3448 36.7023C72.1533 35.5627 69.6053 35.1885 70.454 34.9022C70.502 34.8841 70.5504 34.8722 70.599 34.8667ZM44.5751 41.439C44.3615 42.8054 47.3113 43.1921 46.2475 44.0391C45.9648 44.1477 45.6644 44.2716 45.3567 44.1911C45.5164 43.4418 43.1228 41.4071 44.5751 41.439ZM38.4408 41.81C38.6383 41.7661 38.9392 42.2416 38.8495 43.0729C39.1925 45.1682 39.8971 47.0415 40.2034 49.037C40.2328 49.9462 39.827 49.1311 39.6972 48.8708C38.5775 47.2432 38.7829 44.9812 38.4011 42.936C38.1968 42.194 38.287 41.845 38.4403 41.8105M47.3539 43.9398C48.6387 44.6285 51.4151 43.7172 52.739 45.0899C53.6161 44.0328 52.6028 46.7452 54.0895 46.8952C55.7075 46.2394 54.8622 47.9528 55.4438 49.1055C56.2901 50.7253 56.4875 53.2078 58.0046 54.1813C59.4373 52.1006 58.6117 56.4616 60.2125 55.0089C60.5413 53.247 58.9219 51.9402 59.4138 50.0293C60.3311 48.8839 61.7521 47.7986 62.5253 46.3512C63.8003 44.9509 64.9694 46.0105 65.6579 47.379C65.5667 48.735 66.19 49.1974 67.244 48.4356C67.7928 50.2226 67.1543 52.5635 68.7023 53.8819C69.9522 56.9527 67.0774 52.6069 66.5374 54.4687C67.7159 55.66 67.3949 56.8388 68.2069 58.0777C68.9791 57.9346 69.7974 59.6474 70.9631 59.5789C72.0196 59.2032 73.5209 59.2623 74.4975 58.5584C73.8623 60.0603 73.0869 61.4901 72.1832 62.8264C71.4619 63.5219 70.894 64.3412 70.3638 65.1929C66.1611 70.0111 60.165 73.0271 53.5 73.0271C48.34 73.0348 43.3283 71.1865 39.2753 67.781C39.116 66.8405 39.7604 67.003 39.4355 66.1711C37.8381 64.5048 41.4249 64.8146 40.1186 62.8677C39.6423 61.5682 38.8848 59.9823 39.2479 58.6577C40.0196 57.3504 41.3872 56.7061 42.4378 55.59C43.1159 54.2063 44.4566 52.9089 44.189 51.3434C43.2747 51.1846 42.7617 51.5033 41.7111 51.5456C39.1224 50.8956 42.6617 50.4818 43.3648 49.9034C45.0024 49.4033 46.8928 48.7815 47.9253 47.2819C49.4457 46.2807 48.5534 44.723 47.3549 43.9393M74.9404 48.4288C75.1884 48.5516 75.4059 50.3898 74.9022 51.1381C74.3843 52.0609 74.1172 49.8527 74.6484 49.5872C74.7087 48.6707 74.8277 48.3729 74.9404 48.4288ZM75.4608 54.6714C75.5088 54.662 75.573 54.7696 75.6686 55.0544C75.6794 55.0377 75.6867 55.0335 75.6975 55.0178C75.5359 55.6492 75.3507 56.2734 75.1423 56.889C74.84 57.1278 74.5607 57.2448 74.6812 56.5718C75.3662 56.958 75.2536 54.7132 75.4608 54.6714ZM43.5653 63.5574C43.382 63.581 43.1782 63.7576 42.964 64.1432C41.0373 64.3303 41.7954 66.7036 42.6396 67.8364C43.2619 68.7665 44.3145 68.373 44.1268 67.1874C44.78 66.2192 44.3591 63.4561 43.5653 63.5574Z" fill="#2EC4B6"/>
</svg>
