<svg width="35" height="26" viewBox="0 0 35 26" fill="none" xmlns="http://www.w3.org/2000/svg">
<path d="M0.504262 26V18.3295C0.504262 16.1515 0.930398 13.9261 1.78267 11.6534C2.63494 9.38068 3.75947 7.23816 5.15625 5.22585C6.55303 3.21354 8.06818 1.53267 9.7017 0.183238L16.3778 4.125C15.0521 6.20833 13.9631 8.38636 13.1108 10.6591C12.2822 12.9318 11.8679 15.465 11.8679 18.2585V26H0.504262ZM18.4375 26V18.3295C18.4375 16.1515 18.8636 13.9261 19.7159 11.6534C20.5682 9.38068 21.6927 7.23816 23.0895 5.22585C24.4863 3.21354 26.0014 1.53267 27.6349 0.183238L34.3111 4.125C32.9853 6.20833 31.8963 8.38636 31.044 10.6591C30.2154 12.9318 29.8011 15.465 29.8011 18.2585V26H18.4375Z" fill="#FF9E16"/>
</svg>
